<svg xmlns="http://www.w3.org/2000/svg" viewBox="0 0 1200 630" font-family="Arial, sans-serif">
<rect width="1200" height="630" fill="#070e1b"/>
<defs><radialGradient id="g" cx="78%" cy="-8%" r="80%"><stop offset="0" stop-color="#2f7bff" stop-opacity=".25"/><stop offset="1" stop-color="#070e1b" stop-opacity="0"/></radialGradient></defs>
<rect width="1200" height="630" fill="url(#g)"/>
<g stroke="#16314f" stroke-width="1"><path d="M0 80h1200M0 160h1200M0 240h1200M0 320h1200M0 400h1200M0 480h1200M0 560h1200"/></g>
<path d="M92 64 78 70v18c0 14 9 22 23 27 14-5 23-13 23-27V70L101 64Z" fill="rgba(47,123,255,.1)" stroke="#2f7bff" stroke-width="3"/>
<circle cx="101" cy="84" r="6" fill="#2f7bff"/>
<text x="150" y="92" fill="#9fb0c6" font-size="26" letter-spacing="5" font-weight="bold">BEACON SECURE SOLUTIONS</text>
<text x="88" y="290" fill="#eef3f9" font-size="76" font-weight="bold">See every corner.</text>
<text x="88" y="372" fill="#2f7bff" font-size="76" font-weight="bold">Stop every threat.</text>
<text x="88" y="454" fill="#eef3f9" font-size="76" font-weight="bold">Live in <tspan fill="#5aa9ff">24 hours.</tspan></text>
<text x="90" y="528" fill="#aab6c6" font-size="28">Solar AI surveillance towers · 24/7 monitoring · verified response</text>
<g font-size="20" fill="#2f7bff" font-family="monospace"><text x="90" y="585">LIVE IN 24 HRS</text><text x="340" y="585">· NDAA AVAILABLE</text><text x="620" y="585">· LICENSED &amp; INSURED</text></g>
</svg>
