<svg xmlns="http://www.w3.org/2000/svg" viewBox="0 0 1280 1000" width="1280" height="1000" role="img" aria-label="Surveillance tower watching over a construction jobsite at dusk">
<defs><pattern id="g" width="48" height="48" patternUnits="userSpaceOnUse"><path d="M48 0H0V48" fill="none" stroke="#16314f" stroke-width="1"/></pattern></defs>
<rect width="1280" height="1000" fill="#0b1628"/><rect width="1280" height="1000" fill="url(#g)"/>
<rect x="12" y="12" width="1256" height="976" fill="none" stroke="#2f7bff" stroke-width="2" stroke-dasharray="14 10" opacity=".55" rx="14"/>
<g transform="translate(612,442) scale(1)" fill="none" stroke="#5aa9ff" stroke-width="2.6" stroke-linecap="round" stroke-linejoin="round">
<path d="M56 38a3 3 0 0 1-3 3H3a3 3 0 0 1-3-3V14a3 3 0 0 1 3-3h10l4-6h14l4 6h10a3 3 0 0 1 3 3Z"/><circle cx="28" cy="26" r="9"/></g>
<text x="640" y="530" fill="#cdd9ea" font-family="monospace" font-size="29" font-weight="700" text-anchor="middle">IMAGE: construction-jobsite</text>
<text x="640" y="567" fill="#7d8ba0" font-family="monospace" font-size="20" text-anchor="middle">1280×1000 · replace assets/img/ph/construction-jobsite.svg</text>
</svg>