<svg xmlns="http://www.w3.org/2000/svg" viewBox="0 0 1920 1080" width="1920" height="1080" role="img" aria-label="Solar-powered AI surveillance towers protecting a site at dusk">
<defs><pattern id="g" width="48" height="48" patternUnits="userSpaceOnUse"><path d="M48 0H0V48" fill="none" stroke="#16314f" stroke-width="1"/></pattern></defs>
<rect width="1920" height="1080" fill="#0b1628"/><rect width="1920" height="1080" fill="url(#g)"/>
<rect x="12" y="12" width="1896" height="1056" fill="none" stroke="#2f7bff" stroke-width="2" stroke-dasharray="14 10" opacity=".55" rx="14"/>
<g transform="translate(932,482) scale(1)" fill="none" stroke="#5aa9ff" stroke-width="2.6" stroke-linecap="round" stroke-linejoin="round">
<path d="M56 38a3 3 0 0 1-3 3H3a3 3 0 0 1-3-3V14a3 3 0 0 1 3-3h10l4-6h14l4 6h10a3 3 0 0 1 3 3Z"/><circle cx="28" cy="26" r="9"/></g>
<text x="960" y="570" fill="#cdd9ea" font-family="monospace" font-size="43" font-weight="700" text-anchor="middle">IMAGE: home-hero</text>
<text x="960" y="626" fill="#7d8ba0" font-family="monospace" font-size="30" text-anchor="middle">1920×1080 · replace assets/img/ph/home-hero.svg</text>
</svg>